<mxfile host="app.diagrams.net" agent="Mozilla/5.0 (Windows NT 10.0; Win64; x64) AppleWebKit/537.36 (KHTML, like Gecko) Chrome/125.0.0.0 Safari/537.36" version="24.9.1">
  <diagram name="第 1 页" id="VxHALeBs2BCOJVHT1nt_">
    <mxGraphModel dx="1434" dy="746" grid="1" gridSize="10" guides="1" tooltips="1" connect="1" arrows="1" fold="1" page="1" pageScale="1" pageWidth="1654" pageHeight="1169" math="0" shadow="0">
      <root>
        <mxCell id="0" />
        <mxCell id="1" parent="0" />
        <mxCell id="WK5S7aKCZVSB_zJ08Xr1-9" style="edgeStyle=orthogonalEdgeStyle;rounded=0;orthogonalLoop=1;jettySize=auto;html=1;" edge="1" parent="1" source="WK5S7aKCZVSB_zJ08Xr1-1" target="WK5S7aKCZVSB_zJ08Xr1-6">
          <mxGeometry relative="1" as="geometry" />
        </mxCell>
        <mxCell id="WK5S7aKCZVSB_zJ08Xr1-1" value="流水线脚本收集UT/Sonar" style="rounded=1;whiteSpace=wrap;html=1;" vertex="1" parent="1">
          <mxGeometry x="260" y="240" width="100" height="50" as="geometry" />
        </mxCell>
        <mxCell id="WK5S7aKCZVSB_zJ08Xr1-10" style="edgeStyle=orthogonalEdgeStyle;rounded=0;orthogonalLoop=1;jettySize=auto;html=1;entryX=0;entryY=0.5;entryDx=0;entryDy=0;" edge="1" parent="1" source="WK5S7aKCZVSB_zJ08Xr1-2" target="WK5S7aKCZVSB_zJ08Xr1-6">
          <mxGeometry relative="1" as="geometry" />
        </mxCell>
        <mxCell id="WK5S7aKCZVSB_zJ08Xr1-2" value="&lt;div&gt;&lt;span style=&quot;background-color: initial;&quot;&gt;流水线上报&lt;/span&gt;&lt;/div&gt;&lt;div&gt;&lt;span style=&quot;background-color: initial;&quot;&gt;AT&lt;/span&gt;&lt;br&gt;&lt;/div&gt;" style="rounded=1;whiteSpace=wrap;html=1;" vertex="1" parent="1">
          <mxGeometry x="260" y="330" width="100" height="50" as="geometry" />
        </mxCell>
        <mxCell id="WK5S7aKCZVSB_zJ08Xr1-13" value="" style="group" vertex="1" connectable="0" parent="1">
          <mxGeometry x="460" y="170" width="200" height="230" as="geometry" />
        </mxCell>
        <mxCell id="WK5S7aKCZVSB_zJ08Xr1-11" value="UNI" style="text;html=1;align=center;verticalAlign=middle;whiteSpace=wrap;rounded=0;fontSize=17;" vertex="1" parent="WK5S7aKCZVSB_zJ08Xr1-13">
          <mxGeometry x="70" width="60" height="30" as="geometry" />
        </mxCell>
        <mxCell id="WK5S7aKCZVSB_zJ08Xr1-6" value="" style="rounded=1;whiteSpace=wrap;html=1;" vertex="1" parent="WK5S7aKCZVSB_zJ08Xr1-13">
          <mxGeometry y="40" width="200" height="190" as="geometry" />
        </mxCell>
        <mxCell id="WK5S7aKCZVSB_zJ08Xr1-4" value="&lt;div&gt;t_code_quality&lt;/div&gt;" style="rounded=1;whiteSpace=wrap;html=1;" vertex="1" parent="WK5S7aKCZVSB_zJ08Xr1-13">
          <mxGeometry x="30" y="60" width="140" height="50" as="geometry" />
        </mxCell>
        <mxCell id="WK5S7aKCZVSB_zJ08Xr1-5" value="&lt;div&gt;t_code_quality_history&lt;/div&gt;" style="rounded=1;whiteSpace=wrap;html=1;" vertex="1" parent="WK5S7aKCZVSB_zJ08Xr1-13">
          <mxGeometry x="30" y="130" width="140" height="50" as="geometry" />
        </mxCell>
        <mxCell id="WK5S7aKCZVSB_zJ08Xr1-12" value="domain、branch、commitId、source" style="text;html=1;align=left;verticalAlign=top;whiteSpace=wrap;rounded=0;" vertex="1" parent="WK5S7aKCZVSB_zJ08Xr1-13">
          <mxGeometry y="190" width="200" height="30" as="geometry" />
        </mxCell>
        <mxCell id="WK5S7aKCZVSB_zJ08Xr1-23" value="" style="group" vertex="1" connectable="0" parent="1">
          <mxGeometry x="750" y="215" width="190" height="255" as="geometry" />
        </mxCell>
        <mxCell id="WK5S7aKCZVSB_zJ08Xr1-22" value="" style="rounded=1;whiteSpace=wrap;html=1;" vertex="1" parent="WK5S7aKCZVSB_zJ08Xr1-23">
          <mxGeometry width="190" height="255" as="geometry" />
        </mxCell>
        <mxCell id="WK5S7aKCZVSB_zJ08Xr1-21" value="" style="group" vertex="1" connectable="0" parent="WK5S7aKCZVSB_zJ08Xr1-23">
          <mxGeometry x="10" y="20" width="173.5" height="220" as="geometry" />
        </mxCell>
        <mxCell id="WK5S7aKCZVSB_zJ08Xr1-14" value="code_quality_record_task" style="rounded=1;whiteSpace=wrap;html=1;" vertex="1" parent="WK5S7aKCZVSB_zJ08Xr1-21">
          <mxGeometry width="170" height="40" as="geometry" />
        </mxCell>
        <mxCell id="WK5S7aKCZVSB_zJ08Xr1-15" value="pipeline_status: 流水线状态&lt;div&gt;sonar_task_status: sonar状态&lt;/div&gt;&lt;div&gt;&lt;br&gt;&lt;/div&gt;" style="text;html=1;align=left;verticalAlign=top;whiteSpace=wrap;rounded=0;" vertex="1" parent="WK5S7aKCZVSB_zJ08Xr1-21">
          <mxGeometry x="3.5" y="55" width="170" height="40" as="geometry" />
        </mxCell>
        <mxCell id="WK5S7aKCZVSB_zJ08Xr1-20" value="" style="group" vertex="1" connectable="0" parent="WK5S7aKCZVSB_zJ08Xr1-21">
          <mxGeometry x="26" y="100" width="103" height="120" as="geometry" />
        </mxCell>
        <mxCell id="WK5S7aKCZVSB_zJ08Xr1-19" style="edgeStyle=orthogonalEdgeStyle;rounded=0;orthogonalLoop=1;jettySize=auto;html=1;entryX=0.5;entryY=0;entryDx=0;entryDy=0;" edge="1" parent="WK5S7aKCZVSB_zJ08Xr1-20" source="WK5S7aKCZVSB_zJ08Xr1-16" target="WK5S7aKCZVSB_zJ08Xr1-17">
          <mxGeometry relative="1" as="geometry" />
        </mxCell>
        <mxCell id="WK5S7aKCZVSB_zJ08Xr1-16" value="流水线结束" style="rhombus;whiteSpace=wrap;html=1;" vertex="1" parent="WK5S7aKCZVSB_zJ08Xr1-20">
          <mxGeometry width="103" height="50" as="geometry" />
        </mxCell>
        <mxCell id="WK5S7aKCZVSB_zJ08Xr1-17" value="结束" style="rhombus;whiteSpace=wrap;html=1;" vertex="1" parent="WK5S7aKCZVSB_zJ08Xr1-20">
          <mxGeometry y="70" width="103" height="50" as="geometry" />
        </mxCell>
        <mxCell id="WK5S7aKCZVSB_zJ08Xr1-24" style="edgeStyle=orthogonalEdgeStyle;rounded=0;orthogonalLoop=1;jettySize=auto;html=1;entryX=0;entryY=0.5;entryDx=0;entryDy=0;" edge="1" parent="1" source="WK5S7aKCZVSB_zJ08Xr1-4" target="WK5S7aKCZVSB_zJ08Xr1-14">
          <mxGeometry relative="1" as="geometry" />
        </mxCell>
        <mxCell id="WK5S7aKCZVSB_zJ08Xr1-26" value="创建定时任务" style="edgeLabel;html=1;align=center;verticalAlign=middle;resizable=0;points=[];" vertex="1" connectable="0" parent="WK5S7aKCZVSB_zJ08Xr1-24">
          <mxGeometry x="-0.0154" y="1" relative="1" as="geometry">
            <mxPoint as="offset" />
          </mxGeometry>
        </mxCell>
        <mxCell id="WK5S7aKCZVSB_zJ08Xr1-28" value="用户提测" style="rounded=1;whiteSpace=wrap;html=1;" vertex="1" parent="1">
          <mxGeometry x="1200" y="70" width="80" height="40" as="geometry" />
        </mxCell>
        <mxCell id="WK5S7aKCZVSB_zJ08Xr1-29" value="自动触发&lt;div&gt;流水线&lt;/div&gt;" style="rhombus;whiteSpace=wrap;html=1;" vertex="1" parent="1">
          <mxGeometry x="1195" y="145" width="90" height="70" as="geometry" />
        </mxCell>
        <mxCell id="WK5S7aKCZVSB_zJ08Xr1-33" style="edgeStyle=orthogonalEdgeStyle;rounded=0;orthogonalLoop=1;jettySize=auto;html=1;entryX=0.5;entryY=1;entryDx=0;entryDy=0;" edge="1" parent="1" source="WK5S7aKCZVSB_zJ08Xr1-17" target="WK5S7aKCZVSB_zJ08Xr1-6">
          <mxGeometry relative="1" as="geometry" />
        </mxCell>
        <mxCell id="WK5S7aKCZVSB_zJ08Xr1-34" value="更新质量数据&lt;div&gt;主要是Sonar&lt;/div&gt;" style="edgeLabel;html=1;align=center;verticalAlign=middle;resizable=0;points=[];" vertex="1" connectable="0" parent="WK5S7aKCZVSB_zJ08Xr1-33">
          <mxGeometry x="-0.125" y="-3" relative="1" as="geometry">
            <mxPoint as="offset" />
          </mxGeometry>
        </mxCell>
      </root>
    </mxGraphModel>
  </diagram>
</mxfile>
